<svg width="1500" height="1000" viewBox="0 0 1500 1500"><rect width="1500" height="1500" fill="#000000"></rect><g transform="matrix(0.6666666666666666,0,0,0.6666666666666666,249.39393939393938,438.5856950067477)"><svg viewBox="0 0 396 247" data-background-color="#ffffff" preserveAspectRatio="xMidYMid meet" height="935" width="1500" xmlns="http://www.w3.org/2000/svg" xmlns:xlink="http://www.w3.org/1999/xlink"><g id="tight-bounds" transform="matrix(1,0,0,1,0.2400000000000091,-0.09999999999999432)"><svg viewBox="0 0 395.52 247.2" height="247.2" width="395.52"><g><svg></svg></g><g><svg viewBox="0 0 395.52 247.2" height="247.2" width="395.52"><g transform="matrix(1,0,0,1,39.55199999999999,86.90619683413627)"><svg viewBox="0 0 316.416 73.38760633172745" height="73.38760633172745" width="316.416"><g><svg viewBox="0 0 316.416 73.38760633172745" height="73.38760633172745" width="316.416"><g><svg viewBox="0 0 316.416 73.38760633172745" height="73.38760633172745" width="316.416"><g><svg viewBox="0 0 316.416 73.38760633172745" height="73.38760633172745" width="316.416"><g id="textblocktransform"><svg viewBox="0 0 316.416 73.38760633172745" height="73.38760633172745" width="316.416" id="textblock"><g><svg viewBox="0 0 316.416 73.38760633172745" height="73.38760633172745" width="316.416"><g transform="matrix(1,0,0,1,0,0)"><svg width="316.416" viewBox="0.85 -33.2 145.29 33.7" height="73.38760633172745" data-palette-color="#202046"><path d="M3.75 0L0.85 0 10.25-32.75 15.05-32.75 24.1 0 21.15 0 19.1-7.55 5.85-7.55 3.75 0ZM6.55-10.05L18.45-10.05 13.05-30.25 12.2-30.25 6.55-10.05ZM28.8-23.75L31.35-23.75 31.45-21.75Q36.3-24.05 39.5-24.05 42.7-24.05 44.52-21.85 46.35-19.65 46.35-15.85L46.35-15.85 46.35 0 43.7 0 43.7-15.85Q43.7-18.3 42.5-19.9L42.5-19.9Q41.3-21.45 38.9-21.45 36.5-21.45 31.45-19.25L31.45-19.25 31.45 0 28.8 0 28.8-23.75ZM67.95-23.75L67.95-23.75 70.95-23.75Q67.45-18.1 62.9-12.65L62.9-12.65Q66-8.25 71.25 0L71.25 0 68.25 0Q64.25-6.5 61-11.05L61-11.05 57.5-10.6 57.5 0 54.85 0 54.85-33.2 57.5-33.2 57.5-13 60.75-13.5Q64.3-18.1 67.95-23.75ZM86.94-21.25L81.14-21.25 81.14-23.75 89.59-23.75 89.59-2.5 95.39-2.5 95.39 0 80.74 0 80.74-2.5 86.94-2.5 86.94-21.25ZM88.04-28.55Q87.14-28.55 86.52-29.18 85.89-29.8 85.89-30.78 85.89-31.75 86.52-32.33 87.14-32.9 88.04-32.9 88.94-32.9 89.52-32.35 90.09-31.8 90.09-30.8 90.09-29.8 89.52-29.18 88.94-28.55 88.04-28.55ZM107.99-9.1L107.99-20.9 103.79-20.9 103.79-23.4 107.99-23.4 107.99-29.15 110.64-29.65 110.64-23.4 120.14-23.4 120.14-20.9 110.64-20.9 110.64-9.2Q110.64-5.3 111.42-3.7 112.19-2.1 114.59-2.1 116.99-2.1 119.89-3.05L119.89-3.05 120.49-0.55Q117.59 0.5 115.09 0.5 112.59 0.5 111.17-0.15 109.74-0.8 109.07-2.23 108.39-3.65 108.19-5.15 107.99-6.65 107.99-9.1L107.99-9.1ZM135.89-2.15L135.89-2.15Q137.74-2.15 139.91-3.33 142.09-4.5 143.09-5.5L143.09-5.5 143.09-11.45Q139.79-11.7 136.79-11.7 133.79-11.7 132.29-10.43 130.79-9.15 130.79-7L130.79-7Q130.79-2.15 135.89-2.15ZM135.84 0.45L135.84 0.45Q132.19 0.45 130.09-1.43 127.99-3.3 127.99-6.75 127.99-10.2 130.29-12.1L130.29-12.1Q132.59-14.05 136.39-14.05 140.19-14.05 143.09-13.75L143.09-13.75Q143.09-18.2 141.99-19.83 140.89-21.45 137.54-21.45 134.19-21.45 129.64-19.85L129.64-19.85 128.89-22.35Q133.54-24.05 137.29-24.05L137.29-24.05Q142.24-24.05 143.99-21.85 145.74-19.65 145.74-14.15L145.74-14.15 145.74-3.65 146.14 0.15 143.59 0.4 143.09-2.6Q141.94-1.6 139.84-0.58 137.74 0.45 135.84 0.45Z" opacity="1" transform="matrix(1,0,0,1,0,0)" fill="#ffffff" class="wordmark-text-0" data-fill-palette-color="primary" id="text-0"></path></svg></g></svg></g></svg></g></svg></g></svg></g></svg></g></svg></g><g><path d="M0 247.2v-247.2h395.52v247.2zM388.902 240.582v-233.964h-382.284v233.964z" fill="#ffffff" fill-rule="nonzero" stroke="none" stroke-width="1" stroke-linecap="butt" stroke-linejoin="miter" stroke-miterlimit="10" stroke-dasharray="" stroke-dashoffset="0" font-family="none" font-weight="none" font-size="none" text-anchor="none" style="mix-blend-mode: normal" data-fill-palette-color="tertiary"></path></g></svg></g><defs></defs></svg><rect width="395.52" height="247.2" fill="none" stroke="none" visibility="hidden"></rect></g></svg></g></svg>